# Blender v2.73 (sub 0) OBJ File: ''
# www.blender.org
mtllib object.mtl
o Suzanne.001_Suzanne.002
v -5.948614 -0.028813 1.000000
v -3.948613 -0.028813 1.000000
v -5.948614 -0.028813 -1.000000
v -3.948613 -0.028813 -1.000000
v -5.948614 4.594586 1.000000
v -3.948613 4.594586 1.000000
v -5.948614 4.594586 -1.000000
v -3.948613 4.594586 -1.000000
v -6.502043 4.856762 1.553430
v -3.395183 4.856762 1.553430
v -6.502043 4.856762 -1.553430
v -3.395183 4.856762 -1.553430
v -6.502043 7.281896 1.553430
v -3.395183 7.281896 1.553430
v -6.502043 7.281896 -1.553430
v -3.395183 7.281896 -1.553430
v -5.992826 7.697009 1.044213
v -3.904400 7.697009 1.044213
v -5.992826 7.697009 -1.044213
v -3.904400 7.697009 -1.044213
v -2.973915 5.078113 1.269856
v -2.973915 5.078113 -1.269856
v -2.973915 7.060546 1.269856
v -2.973915 7.060546 -1.269856
v 5.948615 -0.028813 1.000000
v 3.948615 -0.028813 1.000000
v 5.948615 -0.028813 -1.000000
v 3.948615 -0.028813 -1.000000
v 5.948615 4.594586 1.000000
v 3.948615 4.594586 1.000000
v 5.948615 4.594586 -1.000000
v 3.948615 4.594586 -1.000000
v 6.502045 4.856762 1.553430
v 3.395185 4.856762 1.553430
v 6.502045 4.856762 -1.553430
v 3.395185 4.856762 -1.553430
v 6.502045 7.281896 1.553430
v 3.395185 7.281896 1.553430
v 6.502045 7.281896 -1.553430
v 3.395185 7.281896 -1.553430
v 5.992827 7.697009 1.044213
v 3.904402 7.697009 1.044213
v 5.992827 7.697009 -1.044213
v 3.904402 7.697009 -1.044213
v 2.973917 5.078113 1.269856
v 2.973917 5.078113 -1.269856
v 2.973917 7.060546 1.269856
v 2.973917 7.060546 -1.269856
v -3.948613 -0.028813 -26.000000
v 3.948615 -0.028813 -26.000000
v -3.948613 -0.028813 26.000000
v 3.948615 -0.028813 26.000000
v 5.948615 -0.028813 26.000000
v 5.948615 -0.028813 -26.000000
v -5.948614 -0.028813 -26.000000
v -5.948614 -0.028813 26.000000
v 30.948614 -0.028813 -1.000000
v 30.948614 -0.028813 -26.000000
v 30.948614 -0.028813 1.000000
v 30.948614 -0.028813 26.000000
v -30.948614 -0.028813 -1.000000
v -30.948614 -0.028813 -26.000000
v -30.948614 -0.028813 1.000000
v -30.948614 -0.028813 26.000000
v 11.041748 -2.703125 -23.055664
v -3.948613 -1.028813 -26.000000
v 3.948615 -1.028813 -26.000000
v -3.948613 -1.028813 26.000000
v 3.948615 -1.028813 26.000000
v 5.948615 -1.028813 26.000000
v 5.948615 -1.028813 -26.000000
v -5.948614 -1.028813 -26.000000
v -5.948614 -1.028813 26.000000
v 30.948614 -1.028813 -1.000000
v 30.948614 -1.028813 -26.000000
v 30.948614 -1.028813 1.000000
v 30.948614 -1.028813 26.000000
v -30.948614 -1.028813 -1.000000
v -30.948614 -1.028813 -26.000000
v -30.948614 -1.028813 1.000000
v -30.948614 -1.028813 26.000000
v -3.948613 -1.028813 -1.000000
v 3.948615 -1.028813 -1.000000
v -3.948613 -1.028813 1.000000
v 3.948615 -1.028813 1.000000
v 5.948615 -1.028813 1.000000
v 5.948615 -1.028813 -1.000000
v -5.948614 -1.028813 1.000000
v -5.948614 -1.028813 -1.000000
vn 0.000000 1.000000 0.000000
vn 0.000000 -0.903700 -0.428100
vn 0.000000 0.000000 -1.000000
vn 1.000000 0.000000 0.000000
vn 0.000000 0.000000 1.000000
vn -1.000000 0.000000 0.000000
vn 0.428100 -0.903700 0.000000
vn 0.000000 -0.903700 0.428100
vn -0.428100 -0.903700 0.000000
vn 0.000000 0.775100 -0.631900
vn 0.631900 0.775100 0.000000
vn 0.000000 0.775100 0.631900
vn -0.631900 0.775100 0.000000
vn 0.558400 0.000000 0.829600
vn 0.558400 0.000000 -0.829600
vn 0.465100 0.885200 0.000000
vn 0.465100 -0.885200 0.000000
vn -0.558400 0.000000 0.829600
vn -0.558400 0.000000 -0.829600
vn -0.465100 0.885200 0.000000
vn -0.465100 -0.885200 0.000000
vn 0.000000 -1.000000 0.000000
usemtl Material.002
s off
f 28//1 50//1 49//1
f 7//2 11//2 12//2
f 3//3 7//3 8//3
f 4//4 8//4 6//4
f 2//5 6//5 5//5
f 1//6 5//6 7//6
f 11//3 15//3 16//3
f 8//7 12//7 10//7
f 6//8 10//8 9//8
f 5//9 9//9 11//9
f 15//10 19//10 20//10
f 10//5 14//5 13//5
f 9//6 13//6 15//6
f 18//1 20//1 19//1
f 16//11 20//11 18//11
f 14//12 18//12 17//12
f 13//13 17//13 19//13
f 10//14 21//14 23//14
f 16//15 24//15 22//15
f 14//16 23//16 24//16
f 12//17 22//17 21//17
f 2//1 26//1 28//1
f 36//2 35//2 31//2
f 32//3 31//3 27//3
f 30//6 32//6 28//6
f 29//5 30//5 26//5
f 31//4 29//4 25//4
f 40//3 39//3 35//3
f 34//9 36//9 32//9
f 33//8 34//8 30//8
f 35//7 33//7 29//7
f 44//10 43//10 39//10
f 37//5 38//5 34//5
f 39//4 37//4 33//4
f 43//1 44//1 42//1
f 42//13 44//13 40//13
f 41//12 42//12 38//12
f 43//11 41//11 37//11
f 47//18 45//18 34//18
f 46//19 48//19 40//19
f 48//20 47//20 38//20
f 45//21 46//21 36//21
f 45//5 47//5 23//5
f 23//1 47//1 48//1
f 24//3 48//3 46//3
f 46//22 45//22 21//22
f 2//1 51//1 52//1
f 53//1 60//1 59//1
f 4//1 49//1 55//1
f 3//1 61//1 63//1
f 26//1 52//1 53//1
f 27//1 57//1 58//1
f 25//1 59//1 57//1
f 55//1 62//1 61//1
f 1//1 63//1 64//1
f 1//1 56//1 51//1
f 27//1 54//1 50//1
f 63//6 80//6 81//6
f 50//3 67//3 66//3
f 61//6 78//6 80//6
f 55//3 72//3 79//3
f 62//6 79//6 78//6
f 60//4 77//4 76//4
f 59//4 76//4 74//4
f 54//3 71//3 67//3
f 51//5 68//5 69//5
f 57//4 74//4 75//4
f 64//5 81//5 73//5
f 52//5 69//5 70//5
f 49//3 66//3 72//3
f 53//5 70//5 77//5
f 58//3 75//3 71//3
f 56//5 73//5 68//5
f 67//22 83//22 82//22
f 68//22 84//22 85//22
f 85//22 84//22 82//22
f 69//22 85//22 86//22
f 70//22 86//22 76//22
f 86//22 87//22 74//22
f 83//22 87//22 86//22
f 87//22 71//22 75//22
f 87//22 83//22 67//22
f 88//22 84//22 68//22
f 81//22 80//22 88//22
f 66//22 82//22 89//22
f 88//22 89//22 82//22
f 79//22 72//22 89//22
f 89//22 88//22 80//22
f 4//1 28//1 49//1
f 8//2 7//2 12//2
f 4//3 3//3 8//3
f 2//4 4//4 6//4
f 1//5 2//5 5//5
f 3//6 1//6 7//6
f 12//3 11//3 16//3
f 6//7 8//7 10//7
f 5//8 6//8 9//8
f 7//9 5//9 11//9
f 16//10 15//10 20//10
f 9//5 10//5 13//5
f 11//6 9//6 15//6
f 17//1 18//1 19//1
f 14//11 16//11 18//11
f 13//12 14//12 17//12
f 15//13 13//13 19//13
f 14//14 10//14 23//14
f 12//15 16//15 22//15
f 16//16 14//16 24//16
f 10//17 12//17 21//17
f 4//1 2//1 28//1
f 32//2 36//2 31//2
f 28//3 32//3 27//3
f 26//6 30//6 28//6
f 25//5 29//5 26//5
f 27//4 31//4 25//4
f 36//3 40//3 35//3
f 30//9 34//9 32//9
f 29//8 33//8 30//8
f 31//7 35//7 29//7
f 40//10 44//10 39//10
f 33//5 37//5 34//5
f 35//4 39//4 33//4
f 41//1 43//1 42//1
f 38//13 42//13 40//13
f 37//12 41//12 38//12
f 39//11 43//11 37//11
f 38//18 47//18 34//18
f 36//19 46//19 40//19
f 40//20 48//20 38//20
f 34//21 45//21 36//21
f 21//5 45//5 23//5
f 24//1 23//1 48//1
f 22//3 24//3 46//3
f 22//22 46//22 21//22
f 26//1 2//1 52//1
f 25//1 53//1 59//1
f 3//1 4//1 55//1
f 1//1 3//1 63//1
f 25//1 26//1 53//1
f 54//1 27//1 58//1
f 27//1 25//1 57//1
f 3//1 55//1 61//1
f 56//1 1//1 64//1
f 2//1 1//1 51//1
f 28//1 27//1 50//1
f 64//6 63//6 81//6
f 49//3 50//3 66//3
f 63//6 61//6 80//6
f 62//3 55//3 79//3
f 61//6 62//6 78//6
f 59//4 60//4 76//4
f 57//4 59//4 74//4
f 50//3 54//3 67//3
f 52//5 51//5 69//5
f 58//4 57//4 75//4
f 56//5 64//5 73//5
f 53//5 52//5 70//5
f 55//3 49//3 72//3
f 60//5 53//5 77//5
f 54//3 58//3 71//3
f 51//5 56//5 68//5
f 66//22 67//22 82//22
f 69//22 68//22 85//22
f 83//22 85//22 82//22
f 70//22 69//22 86//22
f 77//22 70//22 76//22
f 76//22 86//22 74//22
f 85//22 83//22 86//22
f 74//22 87//22 75//22
f 71//22 87//22 67//22
f 73//22 88//22 68//22
f 73//22 81//22 88//22
f 72//22 66//22 89//22
f 84//22 88//22 82//22
f 78//22 79//22 89//22
f 78//22 89//22 80//22
